<svg width="1440" height="591" viewBox="0 0 1440 591" fill="none" xmlns="http://www.w3.org/2000/svg">
<path d="M1506.25 -73.7842H-30.0757V579.425H1506.25V-73.7842Z" fill="white"/>
<path d="M1489.11 560.24C1489.63 575.217 1476.06 587.839 1458.84 588.422L2.09106 588.96C-26.1279 589.543 -28.0556 570.979 -28.5488 556.002L-28.2981 256.866C41.2727 235.207 170.469 182.316 323.175 210.611C547.066 252.089 896.177 582.363 1486.49 381.7L1489.11 560.24Z" fill="#EAF3FB"/>
<path d="M1333.44 569.171H1314.95C1315.09 568.203 1315.55 565.259 1316.42 562.536C1316.72 561.588 1317.06 560.68 1317.47 559.874C1319.26 556.283 1330.68 558.563 1330.68 558.563C1330.68 558.563 1331.75 559.47 1332.57 562.939C1332.96 564.472 1333.28 566.509 1333.44 569.171Z" fill="#1E3966"/>
<path d="M1299.52 286.809C1299.52 286.809 1284.79 289.391 1281.47 298.083C1278.14 306.776 1259.32 447.231 1259.32 447.231C1259.32 447.231 1268.64 454.613 1288.65 451.971C1308.61 449.309 1299.52 286.809 1299.52 286.809Z" fill="#B0C0E3"/>
<path d="M1277.57 563.342C1277.51 565.863 1277.21 568.243 1276.3 569.171H1239.74C1240.2 567.84 1241.51 565.863 1245.26 565.258C1249.52 564.572 1256.18 562.515 1260.07 558.401C1261.46 556.948 1262.49 555.214 1262.93 553.217C1264.65 545.553 1277.15 555.557 1277.15 555.557C1277.15 555.557 1277.66 559.591 1277.57 563.342Z" fill="#1E3966"/>
<path d="M1261.84 559.611C1265.94 560.922 1273.74 564.895 1278.7 563.02C1281.91 561.81 1299.84 509.976 1300.99 487.286C1301.07 485.632 1301.39 483.333 1301.92 480.53C1302.99 474.681 1304.84 466.633 1306.98 457.759C1312.71 433.98 1320.47 404.231 1320.31 394.732C1320.05 379.968 1276.34 391.646 1276.34 391.646C1276.34 391.646 1273.34 403.747 1272.73 421.274C1271.54 456.065 1268.28 514.816 1259.4 555.618C1259 557.372 1260.15 559.087 1261.84 559.611Z" fill="#1E3966"/>
<path d="M1292.18 394.812L1315.29 562.294C1315.29 562.294 1325.44 564.734 1333.34 562.778C1333.34 562.778 1340.1 473.692 1339.53 452.172C1338.97 430.632 1344.39 394.55 1338.3 390.557C1332.21 386.584 1292.18 394.812 1292.18 394.812Z" fill="#254790"/>
<path d="M1341.21 294.472C1341.21 294.472 1316.92 278.761 1299.5 286.808C1296.71 288.079 1293.55 291.669 1291.29 294.149C1285 301.087 1272.69 411.31 1272.69 411.31C1272.69 411.31 1307.63 423.129 1341.21 407.296V294.472Z" fill="white"/>
<path d="M1298.13 286.405C1298.13 286.405 1273.54 296.49 1270.21 304.214C1266.88 311.959 1256.05 359.497 1256.05 365.063C1256.05 370.63 1274.89 366.314 1277.94 357.319C1280.46 349.856 1288.95 326.924 1293.43 312.403L1298.13 286.405Z" fill="#B0C0E3"/>
<path d="M1303.23 294.089C1308.59 295.138 1316.48 294.029 1322.25 290.217C1319.65 283.985 1318.58 279.084 1318.19 275.897C1318.17 275.736 1318.15 275.554 1318.13 275.413C1317.95 273.759 1317.99 272.65 1318.07 272.125H1304.2C1304.2 272.125 1300.41 273.86 1300.41 275.05C1300.41 275.695 1300.41 276.3 1300.39 276.885C1300.37 278.479 1300.28 279.87 1300.2 281.08C1299.94 284.973 1299.5 286.808 1299.5 286.808C1299.5 286.808 1297.82 293.02 1303.23 294.089Z" fill="#FAAB77"/>
<path d="M1300.22 281.081C1310.73 283.118 1316.84 277.37 1318.21 275.897C1318.42 275.696 1318.52 275.555 1318.52 275.555C1318.42 275.494 1318.29 275.454 1318.17 275.393C1314.26 273.8 1305.39 275.071 1300.43 276.886C1300.36 278.499 1300.3 279.891 1300.22 281.081Z" fill="#EE8D4D"/>
<path d="M1321.64 269.847C1319.77 279.951 1306.72 279.629 1301.09 278.983C1299.5 278.802 1298.51 278.6 1298.51 278.6C1296.71 278.116 1295.73 275.313 1295.26 271.622C1294.33 264.321 1295.5 253.591 1296.73 250.848C1298.59 246.713 1302.1 242.256 1315.23 245.483C1328.34 248.71 1324.04 256.878 1321.64 269.847Z" fill="#FAAB77"/>
<path d="M1296.23 245.201C1298.03 242.72 1301.84 239.674 1305.29 237.799C1312.71 233.785 1322.23 237.92 1322.27 237.94C1333 242.659 1335.8 250.868 1330.11 263.655C1324.1 277.188 1318.38 275.655 1318.38 275.655C1318.38 275.655 1319.59 274.889 1319.49 270.694C1319.49 270.452 1319.47 270.25 1319.47 270.089C1319.4 269.222 1319.71 268.354 1320.35 267.79C1321.68 266.6 1322.33 263.01 1321.22 262.001C1319.87 260.791 1317.97 262.263 1317.37 263.393C1316.84 264.2 1315.9 264.462 1315.01 263.917C1311.66 261.799 1313.84 257.584 1310.65 255.003C1307.46 252.421 1300.99 254.579 1296.19 252.522C1289.92 250.182 1294.88 247.076 1296.23 245.201Z" fill="#1E3966"/>
<path d="M1294.74 457.558C1296.86 458.103 1298.95 458.546 1301.03 458.889C1302.87 459.212 1304.7 459.434 1306.54 459.595C1316.92 460.503 1327.37 459.03 1339.57 455.541C1342.32 454.755 1345.16 453.867 1348.1 452.859C1348.43 452.758 1347.3 420.488 1346.01 387.21C1345.89 383.781 1345.74 380.332 1345.6 376.903C1345.54 375.451 1345.48 373.999 1345.42 372.567C1344.25 343.121 1343.1 316.538 1342.86 315.106C1342.3 311.859 1341.77 309.116 1341.21 306.716C1339.55 299.738 1337.48 295.926 1332.98 292.638C1332.53 292.295 1328.94 290.5 1325.76 288.907C1323.14 287.596 1320.8 286.467 1320.8 286.467C1319.75 286.971 1318.5 289.371 1317.19 292.739C1314.77 298.951 1312.16 308.45 1310.35 315.55C1310.35 315.57 1310.35 315.59 1310.35 315.59C1309.18 320.169 1308.35 323.738 1308.11 324.767C1307.71 326.502 1307.16 329.85 1306.54 334.388C1305.69 340.559 1304.66 348.949 1303.57 358.449C1303.45 359.417 1303.35 360.425 1303.23 361.414C1303.11 362.563 1302.97 363.713 1302.85 364.883C1302.81 365.266 1302.77 365.629 1302.72 366.012C1302.3 369.784 1301.9 373.656 1301.47 377.609C1301.13 380.876 1296.17 383.236 1295.83 386.564C1295.63 388.52 1295.22 406.511 1294.7 412.259C1294.31 416.333 1294.58 455.622 1294.74 457.558Z" fill="#B0C0E3"/>
<path d="M1330.58 326.964C1330.6 327.025 1331.42 356.733 1309.08 360.344C1286.73 363.954 1301.58 364.902 1301.58 364.902C1301.58 364.902 1343.61 363.107 1344.29 361.997C1345 360.908 1330.58 326.964 1330.58 326.964Z" fill="#A0AED9"/>
<path d="M1311.7 373.091C1311.7 373.091 1312.12 373.393 1312.93 373.897C1312.95 373.897 1312.95 373.918 1312.97 373.918C1316.38 376.096 1326.5 382.025 1341.23 385.999C1342.78 386.422 1344.37 386.805 1346.01 387.189C1345.89 383.76 1345.75 380.311 1345.6 376.882C1347.54 376.721 1349.42 376.479 1351.15 376.116C1351.09 375.672 1351.03 375.208 1350.97 374.765C1349.09 373.998 1347.24 373.252 1345.44 372.546C1343.97 371.981 1342.56 371.437 1341.23 370.933C1335.18 368.633 1330.7 367.08 1330.7 367.08L1312.79 372.748L1311.7 373.091Z" fill="#A0AED9"/>
<path d="M1306.96 372.607C1306.96 372.607 1309.26 373.172 1312.93 373.918C1312.95 373.918 1312.95 373.918 1312.97 373.918C1319.73 375.27 1331.08 377.186 1341.23 377.085C1342.72 377.065 1344.19 377.004 1345.62 376.903C1347.56 376.742 1349.44 376.5 1351.17 376.137C1354.88 375.35 1357.99 374.039 1360.02 371.962C1375.11 356.593 1351.8 301.432 1346.89 296.067C1341.17 289.794 1330.72 287.596 1324.95 286.85C1324.71 286.809 1324.49 286.789 1324.24 286.769C1322.21 286.527 1320.92 286.487 1320.84 286.467C1320.84 286.467 1321.28 287.919 1322.05 290.379C1322.35 291.327 1322.69 292.436 1323.05 293.667C1326.6 305.264 1333.44 328.075 1336.45 340.942C1337.56 345.642 1338.14 349.03 1337.88 350.038C1336.71 354.435 1324.51 356.694 1316.78 357.682C1313.56 358.106 1311.11 358.287 1310.57 358.328C1310.53 358.328 1310.49 358.328 1310.45 358.328L1310.01 360.163L1308.94 364.56L1307.89 368.876L1306.96 372.607Z" fill="#B0C0E3"/>
<path d="M1264.87 399.028L1316.7 396.85L1306.17 332.27L1254.36 334.448L1264.87 399.028Z" fill="#254790"/>
<path d="M1310.43 358.347C1310.43 358.347 1300.34 357.642 1299.84 360.001C1298.67 365.487 1308.51 369.985 1311.7 369.682C1314.89 369.38 1312.75 357.984 1310.43 358.347Z" fill="#FAAB77"/>
<path d="M1257.2 347.577C1257.2 347.577 1266.86 344.552 1267.89 346.73C1270.31 351.792 1261.76 358.448 1258.6 358.892C1255.43 359.335 1254.84 347.759 1257.2 347.577Z" fill="#FAAB77"/>
<path d="M1319.77 283.198C1319.77 283.198 1324 285.215 1326.14 288.281C1326.14 288.281 1310.27 315.832 1310.35 315.569C1310.41 315.307 1315.69 286.728 1319.77 283.198Z" fill="#A0AED9"/>
<path d="M1300 283.602C1298.61 284.126 1295.93 286.869 1295.32 288.382L1293.43 312.423C1293.43 312.423 1297.46 294.775 1299.5 286.809C1300.02 284.772 1299.94 284.167 1300 283.602Z" fill="#A0AED9"/>
<path d="M1289.01 332.995C1289.01 332.995 1288.61 331.2 1286.25 331.402C1283.89 331.603 1270.64 332.269 1270.64 332.269C1270.64 332.269 1268.08 332.229 1268.32 333.862L1289.01 332.995Z" fill="#1E3966"/>
<path d="M1139.38 331.321C1138.27 329.163 1163.7 321.418 1164.11 342.655C1164.11 342.655 1211.76 341.486 1189.01 314.923C1181.13 305.726 1181.96 298.123 1182.18 291.044C1182.42 283.964 1177.28 263.392 1159.63 265.47C1159.63 265.47 1155.01 263.594 1149.24 266.579C1136.15 273.376 1106.77 339.146 1139.38 331.321Z" fill="#1A3763"/>
<path d="M1217.31 355.059C1217.31 355.059 1220.42 350.339 1222.92 350.238C1225.42 350.138 1230.06 348.847 1229.67 349.775C1229.31 350.702 1226.43 350.803 1226.17 351.348C1225.9 351.892 1230.42 352.739 1231.73 352.82C1233.02 352.921 1236.09 352.82 1235.99 353.465C1235.89 354.111 1230.48 356.793 1226.65 356.43C1222.84 356.067 1218.1 357.54 1218.1 357.54L1217.31 355.059Z" fill="#FAAB77"/>
<path d="M1172.44 356.592C1172.44 356.592 1174.13 359.94 1177.17 363.772C1180.87 368.391 1186.55 373.716 1193.69 374.785C1197.1 375.289 1200.43 374.563 1203.49 373.191H1203.52C1212.19 369.339 1218.7 360.485 1218.7 360.485C1220.24 356.31 1217.73 353.486 1217.73 353.486C1217.73 353.486 1200.23 357.419 1198.57 356.592C1196.9 355.765 1187.18 327.751 1184.86 324.221C1182.54 320.692 1174.65 318.877 1174.65 318.877L1172.44 356.592Z" fill="#FEDCBB"/>
<path d="M1177.2 363.752C1180.89 368.371 1186.57 373.695 1193.71 374.764C1197.12 375.268 1200.45 374.542 1203.52 373.171C1203.17 373.211 1194.52 374.28 1191.07 368.108C1187.54 361.816 1183.75 351.812 1178.53 355.14C1176.25 356.592 1176.35 360.162 1177.2 363.752Z" fill="#F8CBA6"/>
<path d="M1107.15 545.513C1107.15 545.513 1101.8 550.394 1102.85 553.842C1103.9 557.311 1108.72 559.611 1109.37 563.846C1110.01 568.082 1112.61 570.381 1114.97 570.381C1117.33 570.381 1126.15 570.381 1126.15 570.381C1126.15 570.381 1127.88 567.396 1123.71 566.508C1119.53 565.601 1117.96 560.639 1118.22 556.021C1118.48 551.402 1117.84 545.251 1117.84 545.251L1108.98 543.193L1107.15 545.513Z" fill="#1E3966"/>
<path d="M1152.35 547.59C1152.35 547.59 1150.43 568.243 1152.77 569.393L1182.78 569.332C1182.78 569.332 1182.78 565.863 1177.96 565.097C1173.14 564.33 1164.67 561.507 1163.24 555.214C1161.81 548.942 1152.35 547.59 1152.35 547.59Z" fill="#1E3966"/>
<path d="M1130.97 399.451C1137.14 385.595 1140.93 381.621 1140.21 377.325C1139.66 374.119 1141.84 317.686 1141.84 317.686C1142.57 317.465 1144.04 317.263 1144.84 317.081C1147.39 316.517 1149.48 314.742 1150.35 312.301C1151.4 309.357 1152.25 305.021 1152.23 299.575L1153.01 299.736L1166.3 302.378C1166.3 302.378 1166 306.574 1166 310.506C1166 310.547 1166 310.567 1166 310.607C1165.98 314.036 1168.24 317.061 1171.53 318.009C1173.2 318.493 1174.67 318.917 1174.67 318.917C1174.67 318.917 1179.56 332.853 1180.48 347.193C1181.41 361.513 1171.61 367.745 1180.56 396.365C1189.68 425.549 1127.56 407.095 1130.97 399.451Z" fill="#FAAB77"/>
<path d="M1166.28 302.338C1166.28 302.338 1165.98 306.533 1165.98 310.466C1158.54 310.264 1154.61 303.467 1152.99 299.696L1166.28 302.338Z" fill="#F5904E"/>
<path d="M1168.78 306.09C1168.78 306.09 1151.18 306.372 1151.16 295.42C1151.14 284.449 1148.86 277.107 1160.11 276.462C1171.37 275.816 1173.54 279.991 1174.43 283.662C1175.32 287.292 1173.36 305.727 1168.78 306.09Z" fill="#FAAB77"/>
<path d="M1168.12 276.159C1168.12 276.159 1163.3 289.027 1155.9 290.923C1148.5 292.819 1145.29 290.842 1145.29 290.842C1145.29 290.842 1150.96 286.324 1152.15 278.458C1152.15 278.479 1164.49 270.048 1168.12 276.159Z" fill="#1A3763"/>
<path d="M1166.93 277.208C1166.93 277.208 1170.5 278.539 1171.97 281.161C1173.4 283.702 1174.63 287.09 1174.35 291.225C1174.35 291.225 1177.98 282.472 1173.91 277.53C1169.57 272.286 1166.93 277.208 1166.93 277.208Z" fill="#1A3763"/>
<path d="M1133.37 342.656C1133.37 342.656 1133.43 351.005 1133.87 358.569C1134.18 363.591 1134.64 368.25 1135.35 369.924C1137.16 374.099 1139.2 374.764 1139.2 374.764L1154.95 378.616L1160.5 379.968L1177.96 374.744C1177.96 374.744 1185.93 352.538 1182.72 340.034C1179.54 327.529 1174.65 318.856 1174.65 318.856C1174.65 318.856 1160.39 332.813 1141.84 317.667L1133.37 342.656Z" fill="#FEDCBB"/>
<path d="M1133.87 358.568C1134.18 363.59 1134.64 368.249 1135.34 369.923C1137.16 374.098 1139.2 374.764 1139.2 374.764L1154.95 378.616L1161.79 376.599C1161.79 376.599 1137.36 366.152 1139.88 346.507L1133.87 358.568Z" fill="#F8CBA6"/>
<path d="M1176.85 378.132C1176.85 378.132 1185.5 405.057 1186.05 414.234C1186.61 423.41 1169.51 544.483 1168.83 548.699C1168.18 552.672 1163.24 555.213 1163.24 555.213C1163.24 555.213 1160.96 556.565 1157.71 555.637C1153.21 554.366 1151.78 552.833 1151.78 552.833C1151.78 552.833 1145.05 466.491 1149.22 435.633C1153.4 404.795 1153.44 378.111 1153.44 378.111H1176.85V378.132Z" fill="#1E3966"/>
<path d="M1140.19 377.326C1140.19 377.326 1127 395.034 1125.77 406.994C1124.54 418.954 1123.83 461.006 1121.21 472.684C1118.59 484.362 1108.96 506.809 1108.96 543.194C1108.96 543.194 1109.97 545.271 1113.06 546.401C1114.05 546.764 1115.38 547.107 1116.65 547.389C1119.19 547.974 1121.81 546.723 1122.98 544.384C1129.5 531.274 1150.23 489 1151.3 480.227C1152.05 474.015 1158.6 432.911 1172.88 408.789C1176.31 403.001 1170.78 379.968 1170.78 379.968L1140.19 377.326Z" fill="#254790"/>
<path d="M1178.22 373.978C1178.22 373.978 1174.75 376.72 1167.86 376.862C1159.61 377.023 1139.2 374.764 1139.2 374.764C1139.2 374.764 1138.29 377.305 1138.33 379.968C1138.33 379.968 1163.28 386.26 1177.72 380.895C1177.72 380.895 1179.57 377.386 1178.22 373.978Z" fill="#1E3966"/>
<path d="M1166.08 379.705C1166.08 377.365 1167.78 375.449 1169.83 375.449C1171.91 375.449 1173.59 377.365 1173.59 379.705C1173.59 382.045 1171.89 383.961 1169.83 383.961C1167.76 383.961 1166.08 382.065 1166.08 379.705ZM1167.31 379.705C1167.31 381.359 1168.44 382.71 1169.83 382.71C1171.23 382.71 1172.35 381.359 1172.35 379.705C1172.35 378.051 1171.23 376.7 1169.83 376.7C1168.44 376.7 1167.31 378.051 1167.31 379.705Z" fill="white"/>
<path d="M1141.84 397.01C1141.84 397.01 1143.21 400.196 1144.95 400.68C1146.68 401.144 1147.99 402.738 1148.62 403.202C1149.24 403.665 1150.37 403.807 1150.07 404.291C1149.77 404.795 1146.62 403.887 1146.2 403.746C1145.77 403.585 1148.7 406.691 1149.67 407.659C1150.63 408.627 1152.77 409.998 1152.25 410.644C1151.72 411.289 1145.63 410.563 1143.11 408.909C1140.59 407.255 1138.31 400.6 1138.31 400.6L1141.84 397.01Z" fill="#FAAB77"/>
<path d="M1141.82 317.686C1141.82 317.686 1131.59 319.179 1127.66 326.419C1123.71 333.68 1114.33 366.918 1116.35 372.727C1118.36 378.535 1138.33 403.141 1138.33 403.141C1138.33 403.141 1143.8 401.75 1143.8 398.966C1143.8 398.966 1131.73 370.649 1131.94 368.431C1132.14 366.212 1143.25 349.23 1142.85 341.546C1142.42 333.882 1141.82 317.686 1141.82 317.686Z" fill="#FEDCBB"/>
<path d="M1218.54 519.495C1218.34 521.31 1218.52 524.073 1218.92 527.32C1220.54 540.188 1225.76 560.72 1225.76 560.72L1232.32 561.506C1231.83 557.876 1233.2 543.959 1235.02 528.551C1237.76 505.296 1241.51 478.633 1241.51 478.633C1241.51 478.633 1227.21 466.814 1218.8 470.081C1210.39 473.329 1219.53 510.479 1218.54 519.495Z" fill="#F79351"/>
<path d="M1218.92 527.301C1220.54 540.168 1225.76 560.7 1225.76 560.7L1232.32 561.487C1231.83 557.856 1233.2 543.94 1235.02 528.531C1232.68 528.934 1226.35 529.761 1221.04 527.764C1220.24 527.462 1219.53 527.321 1218.92 527.301Z" fill="white"/>
<path d="M1224.93 383.174C1224.93 383.174 1228.4 381.521 1232.28 383.174C1236.17 384.828 1238.99 391.908 1237.24 398.503C1235.5 405.098 1241.37 405.219 1238.65 410.523C1237.68 412.399 1224.91 413.992 1224.49 406.691C1224.23 402.153 1228.32 401.931 1227.13 397.01C1225.94 392.069 1224.93 383.174 1224.93 383.174Z" fill="#2B3A68"/>
<path d="M1206.6 518.084C1206.22 520.302 1206.32 524.034 1206.7 528.37C1207.81 541.48 1211.38 560.216 1211.38 560.216L1217.88 561.709C1217.63 558.119 1219.75 544.626 1222.41 529.54C1226.57 506.063 1232.07 478.715 1232.07 478.715C1232.07 478.715 1218.54 466.049 1209.93 468.791C1201.32 471.514 1208.13 509.149 1206.6 518.084Z" fill="#FAAB77"/>
<path d="M1232.26 560.196C1232.26 560.196 1233.81 563.06 1236.79 563.726C1238.67 564.149 1240.26 565.138 1241.25 566.509C1242.1 567.679 1241.27 569.292 1239.84 569.272L1224.73 569.192C1223.44 569.192 1222.45 568.062 1222.59 566.792C1222.72 565.682 1222.84 564.371 1222.9 563.363C1223.02 561.185 1225.38 559.228 1225.38 559.228C1225.38 559.228 1227.46 560.418 1228.24 560.559C1229.98 560.862 1232.26 560.196 1232.26 560.196Z" fill="#1E2E4F"/>
<path d="M1235.12 414.719C1235.12 414.719 1244.98 431.359 1246.98 444.912C1246.98 444.912 1242.18 451.386 1240.22 446.848C1238.29 442.29 1224.27 417.946 1235.12 414.719Z" fill="#FAAB77"/>
<path d="M1233.24 385.171C1233.14 384.99 1228.73 378.012 1220.48 376.62C1213.78 375.49 1207.53 380.21 1206.5 386.926C1205.47 393.662 1206.52 402.396 1217.51 405.542L1233.24 385.171Z" fill="#2B3A68"/>
<path d="M1231.23 415.203L1218.78 422.584L1215.64 413.831C1215.64 413.831 1217.07 410.644 1217.49 405.542C1217.67 403.404 1217.65 400.903 1217.29 398.18L1228.1 402.879C1228.1 402.879 1227.92 403.868 1227.84 405.3C1227.76 406.853 1227.82 408.95 1228.38 410.886C1228.89 412.56 1229.73 414.134 1231.23 415.203Z" fill="#FAAB77"/>
<path d="M1228.38 410.887C1222.41 411.109 1217.49 405.522 1217.49 405.522L1227.84 405.28C1227.78 406.853 1227.82 408.931 1228.38 410.887Z" fill="#F79351"/>
<path d="M1231.07 407.398C1231.07 407.398 1219.39 411.29 1214.69 402.113C1209.63 392.211 1214 384.466 1218 383.699C1225.98 382.187 1230.84 384.95 1232.46 388.116C1234.09 391.242 1237.52 405.3 1231.07 407.398Z" fill="#FAAB77"/>
<path d="M1201.46 509.956C1204.83 513.183 1229.75 519.838 1243.81 515.058C1246.33 514.191 1242.3 436.521 1239.9 421.516C1239.23 417.401 1235.97 414.194 1231.85 413.65C1231.15 413.549 1230.4 413.468 1229.57 413.388C1229.75 415.223 1229.11 416.958 1225.9 417.603C1221.63 418.43 1217.57 415.747 1215.5 413.872C1212.15 414.578 1210.19 414.82 1207.53 415.929C1204.6 417.159 1202.87 420.185 1203.29 423.311L1204.1 429.24L1206.66 448.118C1206.98 450.478 1206.96 452.898 1206.6 455.258C1205.51 462.438 1203.78 479.904 1202.61 493.195C1201.82 502.513 1201.3 509.794 1201.46 509.956Z" fill="#B0C0E3"/>
<path d="M1222.88 384.788C1222.88 384.788 1223.99 395.74 1213.6 399.632C1209.47 401.185 1207.31 384.445 1215.96 381.097C1224.59 377.749 1233.1 381.722 1234.13 387.571C1235.14 393.42 1234.37 394.63 1234.37 394.63C1234.37 394.63 1230.32 383.497 1222.88 384.788Z" fill="#2B3A68"/>
<path d="M1216.56 420.628C1216.56 420.628 1221.32 439.486 1221.53 446.988C1221.53 446.988 1231.99 465.261 1232.6 466.552C1233.2 467.843 1228.83 469.618 1228.83 469.618C1228.83 469.618 1215.7 455.621 1213.18 449.731C1210.65 443.842 1201.68 424.722 1205.27 419.014C1208.86 413.306 1216.56 420.628 1216.56 420.628Z" fill="#FAAB77"/>
<path d="M1246.98 444.911C1246.98 444.911 1247.91 457.759 1238.77 467.863C1238.77 467.863 1236.27 464.858 1236.59 463.93C1236.91 463.003 1240.48 448.683 1243.11 446.646C1245.71 444.629 1246.98 444.911 1246.98 444.911Z" fill="#FAAB77"/>
<path d="M1232.6 466.552C1232.6 466.552 1238.45 466.512 1238.77 467.883C1239.09 469.255 1237.26 473.571 1232.98 472.058C1228.71 470.566 1228.81 469.618 1228.81 469.618L1232.6 466.552Z" fill="#FAAB77"/>
<path d="M1236.59 463.931C1236.59 463.931 1231.89 466.109 1233.49 468.408C1235.08 470.728 1238.27 469.336 1238.77 467.864C1239.27 466.391 1236.59 463.931 1236.59 463.931Z" fill="#FAAB77"/>
<path d="M1220.01 430.572C1220.01 430.572 1213.88 436.28 1204.42 435.392C1204.42 435.392 1199.76 418.874 1207.25 416.837C1214.71 414.82 1220.88 424.602 1220.01 430.572Z" fill="#A0AED9"/>
<path d="M1238.35 417.623L1243.75 426.861C1243.75 426.861 1243.05 431.157 1239.01 431.58C1234.96 432.024 1238.35 417.623 1238.35 417.623Z" fill="#A0AED9"/>
<path d="M1209.99 383.255C1209.99 383.255 1206.52 381.38 1202.65 383.255C1198.76 385.131 1195.93 393.098 1197.69 400.52C1199.42 407.962 1193.55 408.083 1196.27 414.053C1197.24 416.171 1210.01 417.966 1210.43 409.737C1210.7 404.634 1206.6 404.372 1207.79 398.826C1208.98 393.299 1209.99 383.255 1209.99 383.255Z" fill="#2B3A68"/>
<path d="M1206.7 528.369C1207.81 541.479 1211.38 560.216 1211.38 560.216L1217.88 561.708C1217.63 558.118 1219.75 544.625 1222.41 529.539C1218.94 529.902 1212.57 530.184 1206.7 528.369Z" fill="white"/>
<path d="M1218.04 560.196C1218.04 560.196 1219.59 563.06 1222.57 563.726C1224.45 564.149 1226.04 565.138 1227.03 566.509C1227.88 567.679 1227.05 569.292 1225.62 569.272L1210.51 569.192C1209.22 569.192 1208.24 568.062 1208.38 566.792C1208.5 565.682 1208.62 564.371 1208.68 563.363C1208.8 561.185 1211.16 559.228 1211.16 559.228C1211.16 559.228 1213.24 560.418 1214.02 560.559C1215.78 560.862 1218.04 560.196 1218.04 560.196Z" fill="#2B3A68"/>
<path d="M128.175 421.505C128.175 421.505 121.538 413.77 127.771 408.837C127.771 408.837 132.323 406.08 136.022 406.304C136.022 406.304 130.776 415.115 132.457 415.989C134.161 416.864 137.614 405.743 137.614 405.743C137.614 405.743 147.972 404.734 151.29 406.349C151.29 406.349 142.434 413.59 144.295 414.016C146.156 414.442 155.707 407.335 155.707 407.335C155.707 407.335 165.348 408.972 164.832 414.846C164.317 420.72 160.999 422.536 159.541 422.379C158.084 422.222 149.542 418.971 149.362 420.16C149.183 421.348 154.317 425.272 157.904 425.451C157.904 425.451 151.111 432.939 146.605 430.787C142.098 428.635 141.694 425.204 138.892 423.904C136.089 422.604 133.668 422.626 134.834 423.926C136 425.227 141.089 426.505 142.703 429.352C144.318 432.199 145.753 434.128 141.089 433.41C136.426 432.715 128.825 429.285 128.489 425.384C128.175 421.505 128.175 421.505 128.175 421.505Z" fill="#C5DBF1"/>
<path d="M160.101 415.025C160.101 415.025 133.937 414.017 128.152 421.505C128.152 421.505 126.874 425.339 122.951 428.814L122.345 430.496C122.345 430.496 126.874 425.72 128.511 425.429C128.488 425.406 125.955 416.146 160.101 415.025Z" fill="#C5DBF1"/>
<path d="M122.951 428.814C122.951 428.814 117.345 432.962 116.942 440.383L117.951 440.472C117.951 440.472 119.744 432.805 122.995 429.8C126.246 426.796 122.951 428.814 122.951 428.814Z" fill="#C5DBF1"/>
<path d="M104.972 411.752C104.972 411.752 115.532 405.833 110.6 397.828C110.6 397.828 106.654 392.896 102.439 391.64C102.439 391.64 104.681 403.613 102.439 403.882C100.197 404.173 100.892 390.362 100.892 390.362C100.892 390.362 89.7713 385.004 85.3993 385.43C85.3993 385.43 92.3048 397.111 90.0404 396.819C87.7983 396.528 80.0408 384.712 80.0408 384.712C80.0408 384.712 68.6512 382.605 66.8127 389.353C64.9742 396.102 67.9337 399.487 69.6377 399.913C71.3192 400.339 82.1708 400.205 81.8793 401.595C81.5878 403.008 74.2787 405.25 70.1982 403.994C70.1982 403.994 74.7047 415.115 80.6237 414.554C86.5428 413.994 88.3588 410.339 92.0134 410.048C95.6679 409.756 98.3359 410.743 96.5199 411.729C94.6814 412.716 88.4933 412.043 85.5338 414.554C82.5743 417.065 80.1753 418.612 85.6684 419.733C91.1614 420.854 101.004 420.159 102.977 415.944C104.972 411.752 104.972 411.752 104.972 411.752Z" fill="#C5DBF1"/>
<path d="M72.0352 391.484C72.0352 391.484 101.585 401.058 104.971 411.752C104.971 411.752 104.836 416.528 107.796 422.021V424.128C107.796 424.128 104.702 416.954 103.02 415.967C102.998 415.99 109.612 406.685 72.0352 391.484Z" fill="#C5DBF1"/>
<path d="M107.773 422.042C107.773 422.042 112.325 428.97 109.724 437.4L108.558 437.086C108.558 437.086 109.702 427.804 107.303 423.14C104.926 418.454 107.773 422.042 107.773 422.042Z" fill="#C5DBF1"/>
<path d="M121.762 403.613C121.762 403.613 107.839 395.811 114.341 385.251C114.341 385.251 119.543 378.749 125.103 377.09C125.103 377.09 122.143 392.852 125.103 393.233C128.062 393.614 127.143 375.431 127.143 375.431C127.143 375.431 141.806 368.391 147.546 368.929C147.546 368.929 138.465 384.332 141.425 383.951C144.384 383.569 154.608 367.987 154.608 367.987C154.608 367.987 169.63 365.207 172.051 374.108C174.473 383.009 170.572 387.471 168.33 388.031C166.11 388.592 151.828 388.412 152.187 390.251C152.568 392.112 162.209 395.071 167.59 393.412C167.59 393.412 161.648 408.075 153.868 407.335C146.066 406.595 143.667 401.775 138.847 401.394C134.026 401.013 130.506 402.313 132.905 403.613C135.304 404.914 143.488 404.039 147.366 407.358C151.268 410.676 154.406 412.716 147.187 414.196C139.945 415.676 126.964 414.756 124.363 409.196C121.762 403.613 121.762 403.613 121.762 403.613Z" fill="#D1E4F5"/>
<path d="M165.17 376.889C165.17 376.889 126.204 389.511 121.764 403.614C121.764 403.614 121.944 409.914 118.042 417.156V419.936C118.042 419.936 122.123 410.475 124.343 409.174C124.365 409.174 115.643 396.933 165.17 376.889Z" fill="#D1E4F5"/>
<path d="M118.044 417.155C118.044 417.155 112.035 426.28 115.465 437.378L117.012 436.952C117.012 436.952 115.51 424.711 118.649 418.567C121.788 412.424 118.044 417.155 118.044 417.155Z" fill="#D1E4F5"/>
<path d="M121.295 461.458C136.339 461.458 148.558 449.262 148.558 434.195H94.0312C94.0312 449.262 106.228 461.458 121.295 461.458Z" fill="#D1E4F5"/>
<path d="M148.917 462.847H93.6509C93.6509 460.986 95.1531 459.484 97.014 459.484H145.554C147.415 459.484 148.917 460.986 148.917 462.847Z" fill="#D1E4F5"/>
<path d="M149.163 434.217H93.1338V435.046H149.163V434.217Z" fill="#9EBFE5"/>
<path d="M154.635 464.507V467.13C154.635 468.05 154.343 468.79 153.984 468.79H58.5179C58.1591 468.79 57.8677 468.05 57.8677 467.13V464.507C57.8677 463.588 58.1591 462.848 58.5179 462.848H153.984C154.321 462.848 154.635 463.61 154.635 464.507Z" fill="#92C0E6"/>
<path d="M154.635 464.507V467.13C154.635 468.05 154.366 468.79 154.03 468.79H78.2484C77.9121 468.79 77.6431 468.05 77.6431 467.13V464.507C77.6431 463.588 77.9121 462.848 78.2484 462.848H154.03C154.366 462.848 154.635 463.61 154.635 464.507Z" fill="#B7D4EF"/>
<path d="M130.466 468.789H62.689V567.574H130.466V468.789Z" fill="#C5DBF1"/>
<path d="M149.477 468.789H81.6997V567.574H149.477V468.789Z" fill="#DEE9F7"/>
<path d="M145.823 562.126H85.333V471.592H145.823V562.126ZM85.9832 561.476H145.151V472.242H85.9832V561.476Z" fill="#B4D3EF"/>
<path d="M145.51 501.545H85.6694V502.195H145.51V501.545Z" fill="#B4D3EF"/>
<path d="M145.51 532.06H85.6694V532.71H145.51V532.06Z" fill="#B4D3EF"/>
<path d="M121.7 477.422H110.602C110.064 477.422 109.616 476.974 109.616 476.435C109.616 475.897 110.064 475.449 110.602 475.449H121.7C122.238 475.449 122.687 475.897 122.687 476.435C122.687 476.996 122.238 477.422 121.7 477.422Z" fill="#B4D3EF"/>
<path d="M121.7 507.285H110.602C110.064 507.285 109.616 506.837 109.616 506.299C109.616 505.76 110.064 505.312 110.602 505.312H121.7C122.238 505.312 122.687 505.76 122.687 506.299C122.687 506.837 122.238 507.285 121.7 507.285Z" fill="#B4D3EF"/>
<path d="M121.7 538.404H110.602C110.064 538.404 109.616 537.956 109.616 537.418C109.616 536.88 110.064 536.431 110.602 536.431H121.7C122.238 536.431 122.687 536.88 122.687 537.418C122.687 537.956 122.238 538.404 121.7 538.404Z" fill="#B4D3EF"/>
<path d="M77.7094 449.306V463.027H63.876V449.261C63.876 449.126 63.876 448.992 63.8984 448.857C64.0329 447.288 65.0643 445.965 66.4543 445.359C67.4408 444.933 68.1583 444.037 68.2031 442.938L68.3152 440.965H73.4047L73.4271 442.938C73.4495 444.014 74.1221 444.933 75.1311 445.359C76.5436 445.942 77.5525 447.265 77.7094 448.857C77.7094 449.014 77.7094 449.149 77.7094 449.306Z" fill="#C5DBF1"/>
<path d="M73.7413 441.863H67.8223L67.9792 440.316H73.5843L73.7413 441.863Z" fill="#B4D3EF"/>
<path d="M77.7094 449.307V458.163H63.876V449.262C63.876 449.128 63.876 448.993 63.8984 448.859H77.687C77.7094 449.016 77.7094 449.15 77.7094 449.307Z" fill="white"/>
<path d="M89.0759 455.36V463.028H81.3408V455.338C81.3408 455.27 81.3408 455.181 81.3632 455.113C81.4529 454.239 82.0134 453.499 82.7982 453.163C83.3587 452.939 83.7398 452.423 83.7847 451.818L83.8519 450.719H86.6993L86.7217 451.818C86.7442 452.423 87.1253 452.939 87.6634 453.163C88.4481 453.499 89.0086 454.239 89.0983 455.113C89.0759 455.181 89.0759 455.27 89.0759 455.36Z" fill="#C5DBF1"/>
<path d="M86.8563 451.19H83.5381L83.6278 450.315H86.7666L86.8563 451.19Z" fill="#B4D3EF"/>
<path d="M89.0754 455.36V460.315H81.3403V455.337C81.3403 455.27 81.3403 455.18 81.3627 455.113H89.0754C89.0754 455.18 89.0754 455.27 89.0754 455.36Z" fill="white"/>
<path d="M140.005 325.347H86.4663C84.0041 325.347 82 323.343 82 320.881V269.203C82 266.741 84.0041 264.737 86.4663 264.737H140.005C142.467 264.737 144.472 266.741 144.472 269.203V320.881C144.472 323.343 142.467 325.347 140.005 325.347Z" fill="#BED7F0"/>
<path d="M137.686 322.742H88.7855C86.5524 322.742 84.6914 320.91 84.6914 318.648V271.437C84.6914 269.204 86.5237 267.343 88.7855 267.343H137.686C139.92 267.343 141.78 269.175 141.78 271.437V318.648C141.752 320.881 139.92 322.742 137.686 322.742Z" fill="#DEE9F7"/>
<path d="M111.919 272.896C111.919 272.181 112.492 271.608 113.208 271.608C113.923 271.608 114.496 272.181 114.496 272.896C114.496 273.612 113.923 274.185 113.208 274.185C112.521 274.185 111.919 273.612 111.919 272.896Z" fill="#B4D3EF"/>
<path d="M122.369 274.73C122.713 274.1 123.514 273.871 124.115 274.214C124.745 274.558 124.975 275.359 124.631 275.961C124.287 276.591 123.486 276.82 122.884 276.476C122.255 276.133 122.025 275.359 122.369 274.73Z" fill="#B4D3EF"/>
<path d="M131.33 281.829C131.931 281.428 132.733 281.629 133.134 282.201C133.535 282.802 133.334 283.604 132.761 283.976C132.16 284.377 131.359 284.205 130.986 283.604C130.614 283.003 130.729 282.23 131.33 281.829Z" fill="#B4D3EF"/>
<path d="M135.767 292.823C136.483 292.823 137.056 293.396 137.056 294.112C137.056 294.828 136.483 295.4 135.767 295.4C135.052 295.4 134.479 294.828 134.479 294.112C134.45 293.425 135.052 292.823 135.767 292.823Z" fill="#B4D3EF"/>
<path d="M132.59 307.797C133.302 307.797 133.879 307.221 133.879 306.509C133.879 305.798 133.302 305.221 132.59 305.221C131.879 305.221 131.302 305.798 131.302 306.509C131.302 307.221 131.879 307.797 132.59 307.797Z" fill="#B4D3EF"/>
<path d="M125.374 313.752C125.89 314.267 125.89 315.069 125.374 315.584C124.859 316.099 124.058 316.099 123.542 315.584C123.027 315.069 123.027 314.267 123.542 313.752C124.029 313.236 124.859 313.236 125.374 313.752Z" fill="#B4D3EF"/>
<path d="M111.919 317.961C111.919 317.246 112.491 316.673 113.207 316.673C113.923 316.673 114.496 317.246 114.496 317.961C114.496 318.677 113.923 319.25 113.207 319.25C112.52 319.25 111.919 318.677 111.919 317.961Z" fill="#B4D3EF"/>
<path d="M104.045 274.729C103.701 274.099 102.9 273.87 102.298 274.214C101.669 274.557 101.44 275.359 101.783 275.96C102.127 276.59 102.928 276.819 103.53 276.475C104.159 276.132 104.389 275.359 104.045 274.729Z" fill="#B4D3EF"/>
<path d="M95.0839 281.829C94.4827 281.429 93.6811 281.629 93.3089 282.202C92.908 282.803 93.0797 283.605 93.6809 283.977C94.2821 284.378 95.0839 284.206 95.4561 283.605C95.857 283.032 95.6852 282.23 95.0839 281.829Z" fill="#B4D3EF"/>
<path d="M90.6461 292.823C89.9304 292.823 89.3579 293.396 89.3579 294.112C89.3579 294.827 89.9304 295.4 90.6461 295.4C91.3619 295.4 91.9345 294.827 91.9345 294.112C91.9345 293.424 91.3619 292.823 90.6461 292.823Z" fill="#B4D3EF"/>
<path d="M92.908 305.592C92.3926 306.107 92.3926 306.909 92.908 307.424C93.4233 307.94 94.225 307.94 94.7404 307.424C95.2557 306.909 95.2557 306.107 94.7404 305.592C94.2537 305.105 93.4233 305.105 92.908 305.592Z" fill="#B4D3EF"/>
<path d="M101.955 315.957C102.666 315.957 103.243 315.38 103.243 314.668C103.243 313.957 102.666 313.38 101.955 313.38C101.243 313.38 100.667 313.957 100.667 314.668C100.667 315.38 101.243 315.957 101.955 315.957Z" fill="#B4D3EF"/>
<path d="M112.864 294.141C112.864 293.425 113.436 292.853 114.152 292.853C114.868 292.853 115.441 293.425 115.441 294.141C115.441 294.857 114.868 295.43 114.152 295.43C113.465 295.43 112.864 294.857 112.864 294.141Z" fill="#B4D3EF"/>
<path d="M114.324 277.964H113.98V294.141H114.324V277.964Z" fill="#B4D3EF"/>
<path d="M122.271 286.972L113.691 293.709L114.346 294.542L122.925 287.805L122.271 286.972Z" fill="#B4D3EF"/>
</svg>
